<svg width="17" height="16" viewBox="0 0 17 16" fill="none" xmlns="http://www.w3.org/2000/svg">
<path d="M14.9044 5.96016C14.8971 5.89892 14.883 5.83858 14.8623 5.78016V5.72016C14.8287 5.65162 14.7837 5.58861 14.7292 5.5335L10.5263 1.5335C10.4683 1.48164 10.4021 1.43888 10.3301 1.40683C10.3092 1.404 10.288 1.404 10.2671 1.40683C10.1959 1.36799 10.1173 1.34306 10.0359 1.3335H7.19889C6.64154 1.3335 6.10702 1.54421 5.71291 1.91928C5.31881 2.29436 5.0974 2.80306 5.0974 3.3335V4.00016H4.3969C3.83955 4.00016 3.30503 4.21088 2.91092 4.58595C2.51682 4.96102 2.29541 5.46973 2.29541 6.00016V12.6668C2.29541 13.1973 2.51682 13.706 2.91092 14.081C3.30503 14.4561 3.83955 14.6668 4.3969 14.6668H10.0009C10.5582 14.6668 11.0928 14.4561 11.4869 14.081C11.881 13.706 12.1024 13.1973 12.1024 12.6668V12.0002H12.8029C13.3602 12.0002 13.8947 11.7894 14.2889 11.4144C14.683 11.0393 14.9044 10.5306 14.9044 10.0002V6.00016C14.9044 6.00016 14.9044 6.00016 14.9044 5.96016ZM10.7014 3.60683L12.5157 5.3335H11.4019C11.2161 5.3335 11.0379 5.26326 10.9066 5.13823C10.7752 5.01321 10.7014 4.84364 10.7014 4.66683V3.60683ZM10.7014 12.6668C10.7014 12.8436 10.6276 13.0132 10.4962 13.1382C10.3648 13.2633 10.1867 13.3335 10.0009 13.3335H4.3969C4.21112 13.3335 4.03295 13.2633 3.90158 13.1382C3.77021 13.0132 3.69641 12.8436 3.69641 12.6668V6.00016C3.69641 5.82335 3.77021 5.65378 3.90158 5.52876C4.03295 5.40373 4.21112 5.3335 4.3969 5.3335H5.0974V10.0002C5.0974 10.5306 5.31881 11.0393 5.71291 11.4144C6.10702 11.7894 6.64154 12.0002 7.19889 12.0002H10.7014V12.6668ZM13.5034 10.0002C13.5034 10.177 13.4296 10.3465 13.2982 10.4716C13.1668 10.5966 12.9887 10.6668 12.8029 10.6668H7.19889C7.01311 10.6668 6.83494 10.5966 6.70357 10.4716C6.5722 10.3465 6.49839 10.177 6.49839 10.0002V3.3335C6.49839 3.15669 6.5722 2.98712 6.70357 2.86209C6.83494 2.73707 7.01311 2.66683 7.19889 2.66683H9.30039V4.66683C9.30039 5.19726 9.52179 5.70597 9.9159 6.08104C10.31 6.45612 10.8445 6.66683 11.4019 6.66683H13.5034V10.0002Z" fill="#D17528"/>
</svg>
