<svg width="32" height="32" viewBox="0 0 32 32" fill="none" xmlns="http://www.w3.org/2000/svg">
<rect width="32" height="32" rx="16" fill="#226E90" fill-opacity="0.2"/>
<g clip-path="url(#clip0_329_819)">
<path d="M24.946 14.6158H24.5529C24.4839 14.6158 24.4119 14.7397 24.4119 14.7397L22.9237 18.246C22.8966 18.3214 22.8546 18.3214 22.8246 18.246L21.4354 14.7397C21.4354 14.7397 21.3784 14.6158 21.2824 14.6158H18.6419C18.5999 14.6158 18.5579 14.5404 18.5579 14.465V13.307C18.5579 13.1293 18.4889 13.0054 18.3899 13.0054H14.3302C13.6971 13.0539 13.4301 13.1562 13.151 13.4578C12.884 13.7325 12.743 14.088 12.743 14.5189C12.743 14.9713 12.953 15.4237 13.3611 15.8546C13.4721 15.9785 13.8531 16.307 14.4982 16.8402C14.9063 17.1957 15.1314 17.4704 15.1164 17.7451C15.0893 18.1975 14.8643 18.3483 14.3302 18.3483H11.8728C11.8158 18.3483 11.7618 18.3214 11.7618 18.246C11.7618 18.1975 11.7768 18.1706 11.8038 18.1436C12.3529 17.5404 12.5329 16.7594 12.5329 16.0269C12.5329 14.6427 11.8998 13 9.3734 13H7.16803C7.06901 13 7 13.1239 7 13.3016V18.6984C7 18.8761 7.06901 19 7.16803 19H9.3734C9.45741 19 9.54142 19 9.61344 19H15.1314C15.6354 19 16.0315 18.8492 16.3106 18.5476C16.5776 18.2729 16.7036 17.9174 16.7036 17.4865C16.7036 17.0341 16.4936 16.6032 16.0855 16.1508C15.9865 16.0269 15.5934 15.6984 14.9483 15.1652C14.5403 14.8366 14.3302 14.5619 14.3302 14.3357C14.3302 13.8833 14.5973 13.6571 15.1314 13.6571H16.9977C17.0397 13.6571 17.0817 13.7325 17.0817 13.8079V17.7127C17.0817 18.2944 17.2917 18.9731 17.9368 18.9731H23.0617C23.1877 18.9731 23.2447 18.8223 23.2447 18.8223L25 14.6858C24.988 14.7127 25.018 14.6158 24.946 14.6158ZM9.03734 18.3429H8.48825C8.44624 18.3429 8.40423 18.2675 8.40423 18.1921V13.781C8.40423 13.7056 8.44624 13.6302 8.48825 13.6302H9.03734C10.3846 13.6302 11.0867 14.6158 11.0867 15.9731C11.0867 17.3627 10.3696 18.3429 9.03734 18.3429ZM21.3364 18.3698H18.966C18.6419 18.3698 18.5579 18.1921 18.5579 17.7397V15.3698C18.5579 15.2944 18.5999 15.246 18.6419 15.246H20.0192C20.0612 15.246 20.1182 15.2944 20.1452 15.3483L21.3814 18.246C21.3934 18.3214 21.3814 18.3698 21.3364 18.3698Z" fill="#226E90"/>
<rect x="3" y="3" width="25.6" height="25.6" rx="12.8" fill="#226E90" fill-opacity="0.2"/>
</g>
<defs>
<clipPath id="clip0_329_819">
<rect x="3" y="3" width="25.6" height="25.6" rx="12.8" fill="white"/>
</clipPath>
</defs>
</svg>
