<svg width="21" height="20" viewBox="0 0 21 20" fill="none" xmlns="http://www.w3.org/2000/svg">
<path d="M17.5042 14.192L15.0042 16.692C14.8869 16.8093 14.7279 16.8752 14.562 16.8752C14.3962 16.8752 14.2371 16.8093 14.1198 16.692C14.0026 16.5748 13.9367 16.4157 13.9367 16.2499C13.9367 16.084 14.0026 15.9249 14.1198 15.8077L15.5534 14.3749H4.56202C4.39625 14.3749 4.23728 14.309 4.12007 14.1918C4.00286 14.0746 3.93702 13.9156 3.93702 13.7499C3.93702 13.5841 4.00286 13.4251 4.12007 13.3079C4.23728 13.1907 4.39625 13.1249 4.56202 13.1249H15.5534L14.1198 11.692C14.0026 11.5748 13.9367 11.4157 13.9367 11.2499C13.9367 11.084 14.0026 10.9249 14.1198 10.8077C14.2371 10.6904 14.3962 10.6245 14.562 10.6245C14.7279 10.6245 14.8869 10.6904 15.0042 10.8077L17.5042 13.3077C17.5623 13.3657 17.6084 13.4346 17.6399 13.5105C17.6713 13.5864 17.6875 13.6677 17.6875 13.7499C17.6875 13.832 17.6713 13.9133 17.6399 13.9892C17.6084 14.0651 17.5623 14.134 17.5042 14.192ZM6.61983 9.19205C6.7371 9.30932 6.89616 9.37521 7.06202 9.37521C7.22787 9.37521 7.38693 9.30932 7.5042 9.19205C7.62148 9.07477 7.68736 8.91571 7.68736 8.74986C7.68736 8.58401 7.62148 8.42495 7.5042 8.30767L6.07061 6.87486H17.062C17.2278 6.87486 17.3867 6.80901 17.504 6.6918C17.6212 6.57459 17.687 6.41562 17.687 6.24986C17.687 6.0841 17.6212 5.92513 17.504 5.80792C17.3867 5.69071 17.2278 5.62486 17.062 5.62486H6.07061L7.5042 4.19205C7.62148 4.07477 7.68736 3.91571 7.68736 3.74986C7.68736 3.58401 7.62148 3.42495 7.5042 3.30767C7.38693 3.1904 7.22787 3.12451 7.06202 3.12451C6.89616 3.12451 6.7371 3.1904 6.61983 3.30767L4.11983 5.80767C4.06172 5.86572 4.01562 5.93465 3.98417 6.01052C3.95271 6.0864 3.93652 6.16772 3.93652 6.24986C3.93652 6.33199 3.95271 6.41332 3.98417 6.4892C4.01562 6.56507 4.06172 6.634 4.11983 6.69205L6.61983 9.19205Z" fill="#111111" fill-opacity="0.5"/>
</svg>
