<svg width="32" height="32" viewBox="0 0 32 32" fill="none" xmlns="http://www.w3.org/2000/svg">
<rect width="32" height="32" rx="16" fill="#008B3B" fill-opacity="0.2"/>
<rect x="3" y="3" width="25.6" height="25.6" rx="12.8" fill="#008B3B" fill-opacity="0.2"/>
<path d="M27.5397 14.8223H27.0371C26.9468 14.8223 26.8683 14.9047 26.8644 14.9086L24.9601 17.4019C24.9247 17.449 24.8658 17.4451 24.8344 17.398L23.0754 14.9086C23.0754 14.9047 23.0087 14.8223 22.8869 14.8223H19.5102C19.4514 14.8223 19.4042 14.7751 19.4042 14.7163V13.8917C19.4042 13.7739 19.31 13.6797 19.1922 13.6797H18.0104H17.8376H17.7237C17.606 13.6797 17.5117 13.7739 17.5117 13.8917V13.9859V17.0956C17.5353 17.4883 17.818 17.928 18.5954 17.928H25.1171C25.2702 17.928 25.3488 17.8299 25.3488 17.8299L27.5829 14.8929C27.5947 14.8929 27.6418 14.8223 27.5397 14.8223ZM22.9419 17.4843H19.9304C19.5102 17.4843 19.4121 17.3666 19.4121 17.0407V15.368C19.4121 15.3131 19.4553 15.2659 19.5102 15.262H21.2614C21.3164 15.2659 21.3831 15.2974 21.4185 15.3405L22.989 17.4019C23.0165 17.449 23.0008 17.4843 22.9419 17.4843Z" fill="#008B3B"/>
<path d="M14.359 13.6094L14.1431 13.6055H14.0331H13.8172V13.6094C11.6773 13.6722 11.0177 14.6774 10.9313 15.5922H10.2206H10.0164H9.30969H9.25865H8.90527H8.1946C8.13963 15.5961 8.09644 15.6393 8.09644 15.6982V15.9652C8.09644 16.0202 8.13963 16.0673 8.1946 16.0712H8.90527H9.19582C9.25472 16.0752 9.30576 16.1223 9.30576 16.1812V16.7662V17.0528C9.27043 17.3512 8.99558 17.4572 8.36736 17.4612C6.74969 17.4219 5.88981 16.7348 5.88981 15.7964C5.88981 14.8305 6.79681 14.1277 8.50478 14.1277H8.92098H10.1067C10.1617 14.1238 10.2049 14.0806 10.2049 14.0217V13.7704C10.2049 13.7154 10.1617 13.6683 10.1067 13.6644H8.95239H8.9249H8.08859C4.8611 13.6644 4.04834 14.8266 4.04834 15.7885C4.04834 16.7544 4.8611 17.9127 8.08859 17.9127H9.30184C9.93791 17.9127 10.3934 17.8656 10.7546 17.6575C10.8881 17.579 11.0766 17.4337 11.104 17.1863V17.1824C11.104 17.1667 11.108 17.151 11.108 17.1353V16.9743C11.1198 16.8958 11.1551 16.8918 11.1629 16.8918C11.1944 16.8879 11.2179 16.8958 11.265 16.939C11.6498 17.4965 12.4194 17.9402 13.8172 17.9834V17.9873H14.0331H14.1431H14.359V17.9834C16.6638 17.9166 17.2528 16.7584 17.2528 15.7885C17.2528 14.8344 16.6638 13.6761 14.359 13.6094ZM14.1077 17.5554C13.3813 17.5633 12.7806 16.7819 12.7728 15.816C12.761 14.8501 13.346 14.057 14.0724 14.0531C14.7988 14.0452 15.3956 14.8266 15.4074 15.7925C15.4152 16.7584 14.8341 17.5476 14.1077 17.5554Z" fill="#E30613"/>
</svg>
