<svg width="21" height="20" viewBox="0 0 21 20" fill="none" xmlns="http://www.w3.org/2000/svg">
<path fill-rule="evenodd" clip-rule="evenodd" d="M12.2427 12.7429C13.246 12.7429 14.0627 13.5537 14.0627 14.5504V17.1137C14.0627 17.3279 14.2344 17.4995 14.4543 17.5045H16.0427C17.2943 17.5045 18.3118 16.4995 18.3118 15.2645V7.99454C18.306 7.56954 18.1035 7.16954 17.756 6.90371L12.2619 2.52204C11.5244 1.93787 10.4927 1.93787 9.75268 2.5237L4.29602 6.90204C3.93518 7.17621 3.73268 7.57621 3.72852 8.00871V15.2645C3.72852 16.4995 4.74602 17.5045 5.99768 17.5045H7.60102C7.82685 17.5045 8.01018 17.3254 8.01018 17.1054C8.01018 17.057 8.01602 17.0087 8.02602 16.9629V14.5504C8.02602 13.5595 8.83768 12.7495 9.83352 12.7429H12.2427ZM16.0427 18.7545H14.4394C13.521 18.7329 12.8127 18.012 12.8127 17.1137V14.5504C12.8127 14.2429 12.5568 13.9929 12.2427 13.9929H9.83768C9.53018 13.9945 9.27602 14.2454 9.27602 14.5504V17.1054C9.27602 17.1679 9.26768 17.2279 9.25018 17.2845C9.16018 18.1095 8.45518 18.7545 7.60102 18.7545H5.99768C4.05685 18.7545 2.47852 17.1887 2.47852 15.2645V8.00287C2.48685 7.17454 2.86852 6.4162 3.52768 5.91704L8.97352 1.5462C10.1727 0.596205 11.8435 0.596205 13.0402 1.54454L18.5252 5.91954C19.1693 6.41037 19.551 7.16704 19.5618 7.98537V15.2645C19.5618 17.1887 17.9835 18.7545 16.0427 18.7545Z" fill="#111111" fill-opacity="0.5"/>
</svg>
