<svg width="95" height="27" viewBox="0 0 95 27" fill="none" xmlns="http://www.w3.org/2000/svg">
<g clip-path="url(#clip0_268_266)">
<g clip-path="url(#clip1_268_266)">
<g clip-path="url(#clip2_268_266)">
<g clip-path="url(#clip3_268_266)">
<g clip-path="url(#clip4_268_266)">
<g clip-path="url(#clip5_268_266)">
<g clip-path="url(#clip6_268_266)">
<path d="M39.2354 10.9331C39.5244 11.0159 39.8025 11.1293 40.0697 11.2732C40.335 11.4171 40.5705 11.5926 40.7764 11.7996C40.9803 12.0067 41.1446 12.2442 41.2693 12.5124C41.392 12.7786 41.4533 13.0753 41.4533 13.4026C41.4533 13.793 41.3573 14.1883 41.1653 14.5885C40.9753 14.9868 40.6942 15.3486 40.3221 15.6739C39.95 15.9992 39.4888 16.2654 38.9385 16.4724C38.3862 16.6795 37.7508 16.783 37.0323 16.783H34.0156V6.2041H37.3292C37.9369 6.2041 38.4684 6.26917 38.9236 6.39929C39.3769 6.52942 39.756 6.70096 40.0608 6.91389C40.3656 7.12486 40.5943 7.37033 40.7467 7.6503C40.8991 7.92831 40.9753 8.21419 40.9753 8.50797C40.9753 8.75837 40.9268 8.99792 40.8298 9.22663C40.7328 9.45534 40.6042 9.67222 40.4438 9.87728C40.2855 10.0823 40.1014 10.2736 39.8916 10.451C39.6798 10.6285 39.461 10.7892 39.2354 10.9331ZM35.812 11.9031V15.5113H37.2045C37.634 15.5113 38.0002 15.4551 38.3031 15.3427C38.6059 15.2303 38.8514 15.0834 39.0394 14.902C39.2275 14.7206 39.3641 14.5156 39.4492 14.2869C39.5323 14.0601 39.5739 13.8285 39.5739 13.5919C39.5739 13.2981 39.5165 13.0457 39.4017 12.8347C39.2849 12.6218 39.1206 12.4473 38.9088 12.3113C38.695 12.1733 38.4416 12.0707 38.1487 12.0037C37.8537 11.9367 37.5271 11.9031 37.1689 11.9031H35.812ZM35.812 10.6669H38.1754C38.4802 10.456 38.7257 10.2085 38.9118 9.9246C39.0978 9.64068 39.1909 9.32522 39.1909 8.97821C39.1909 8.51487 39.0087 8.14913 38.6445 7.88099C38.2783 7.61087 37.7597 7.47581 37.0887 7.47581H35.812V10.6669ZM43.4961 14.2336V9.12904H45.2509V13.9586C45.2509 14.205 45.2845 14.4278 45.3518 14.627C45.4191 14.8281 45.5132 15.0006 45.6339 15.1445C45.7547 15.2885 45.9001 15.3999 46.0704 15.4787C46.2386 15.5596 46.4247 15.6 46.6286 15.6C46.8028 15.6 46.973 15.5704 47.1393 15.5113C47.3055 15.4541 47.4659 15.3782 47.6203 15.2835C47.7747 15.1909 47.9221 15.0834 48.0627 14.9612C48.2032 14.8369 48.3358 14.7078 48.4605 14.5737V9.12904H50.2153V16.783H48.7961L48.5348 15.4906C48.3606 15.6503 48.1715 15.8149 47.9677 15.9844C47.7658 16.156 47.551 16.3117 47.3234 16.4517C47.0957 16.5897 46.8552 16.7041 46.6019 16.7948C46.3485 16.8835 46.0842 16.9279 45.8091 16.9279C45.4944 16.9279 45.1974 16.8648 44.9183 16.7386C44.6373 16.6144 44.3918 16.4369 44.182 16.2063C43.9722 15.9736 43.8049 15.6917 43.6802 15.3604C43.5575 15.0292 43.4961 14.6536 43.4961 14.2336ZM56.501 17.3094H54.7462C54.6354 17.3725 54.5196 17.4444 54.3988 17.5253C54.2781 17.6081 54.1653 17.6988 54.0604 17.7974C53.9574 17.896 53.8713 18.0044 53.802 18.1227C53.7347 18.241 53.7011 18.3672 53.7011 18.5013C53.7011 18.6452 53.7437 18.7802 53.8288 18.9064C53.9139 19.0306 54.0396 19.1401 54.2059 19.2347C54.3721 19.3274 54.579 19.4023 54.8264 19.4595C55.0719 19.5147 55.3539 19.5423 55.6726 19.5423C56.0408 19.5423 56.3674 19.5058 56.6524 19.4329C56.9375 19.3599 57.178 19.2623 57.3739 19.1401C57.5699 19.0178 57.7184 18.8769 57.8193 18.7171C57.9203 18.5594 57.9707 18.3938 57.9707 18.2203C57.9707 18.0665 57.9321 17.9324 57.8549 17.8181C57.7777 17.7057 57.6728 17.6111 57.5402 17.5342C57.4076 17.4573 57.2522 17.4011 57.0741 17.3656C56.8939 17.3281 56.7029 17.3094 56.501 17.3094ZM53.6744 17.1645C53.3399 17.0501 53.0677 16.8973 52.8579 16.7061C52.648 16.5168 52.5431 16.292 52.5431 16.0318C52.5431 15.874 52.5847 15.7222 52.6678 15.5763C52.753 15.4324 52.8648 15.2954 53.0033 15.1652C53.1399 15.0351 53.2953 14.9109 53.4695 14.7926C53.6437 14.6763 53.8199 14.5619 53.998 14.4495C53.6991 14.3214 53.4448 14.1676 53.2349 13.9882C53.0251 13.8107 52.8529 13.6155 52.7183 13.4026C52.5857 13.1916 52.4897 12.9678 52.4303 12.7312C52.3689 12.4966 52.3383 12.259 52.3383 12.0185C52.3383 11.5551 52.4372 11.1372 52.6352 10.7645C52.8351 10.3919 53.0974 10.0735 53.422 9.80925C53.7486 9.54308 54.1207 9.33902 54.5384 9.19706C54.9561 9.0551 55.3876 8.98412 55.833 8.98412C56.1675 8.98412 56.4961 9.02553 56.8187 9.10833C57.1433 9.18917 57.4165 9.29958 57.6382 9.43957C57.7926 9.35282 57.9975 9.27987 58.2528 9.22072C58.5101 9.1596 58.7764 9.12904 59.0515 9.12904H60.2837L59.9719 10.3712H58.4131C58.4428 10.4007 58.4864 10.4569 58.5438 10.5397C58.6012 10.6245 58.6566 10.73 58.7101 10.8562C58.7635 10.9804 58.811 11.1234 58.8526 11.285C58.8941 11.4467 58.9149 11.6182 58.9149 11.7996C58.9149 12.2058 58.8189 12.5834 58.6269 12.9323C58.4369 13.2813 58.1835 13.584 57.8668 13.8403C57.5501 14.0986 57.1879 14.3007 56.7801 14.4466C56.3704 14.5944 55.9507 14.6684 55.5212 14.6684C55.4301 14.6684 55.3381 14.6644 55.2451 14.6565C55.154 14.6487 55.06 14.6398 54.963 14.6299C54.8858 14.6792 54.8036 14.7334 54.7165 14.7926C54.6295 14.8537 54.5503 14.9188 54.479 14.9878C54.4058 15.0588 54.3444 15.1347 54.2949 15.2155C54.2474 15.2983 54.2237 15.3831 54.2237 15.4698C54.2237 15.6177 54.291 15.738 54.4256 15.8307C54.5622 15.9214 54.7482 15.9667 54.9838 15.9667H56.9434C57.2898 15.9667 57.6243 16.0091 57.947 16.0939C58.2677 16.1787 58.5497 16.3009 58.7932 16.4606C59.0386 16.6223 59.2346 16.8204 59.3811 17.055C59.5295 17.2877 59.6038 17.5529 59.6038 17.8506C59.6038 18.1838 59.5078 18.5249 59.3158 18.8739C59.1257 19.2229 58.8447 19.5403 58.4725 19.8262C58.1004 20.1121 57.6412 20.3457 57.0948 20.5271C56.5485 20.7065 55.92 20.7962 55.2094 20.7962C54.7561 20.7962 54.3345 20.7568 53.9446 20.6779C53.5566 20.5991 53.2181 20.4857 52.9291 20.3378C52.6421 20.1919 52.4174 20.0145 52.2551 19.8055C52.0928 19.5965 52.0117 19.3619 52.0117 19.1016C52.0117 18.8709 52.072 18.656 52.1928 18.4569C52.3155 18.2597 52.463 18.0793 52.6352 17.9157C52.8094 17.752 52.9915 17.6081 53.1815 17.4839C53.3695 17.3577 53.5338 17.2512 53.6744 17.1645ZM53.9564 11.7878C53.9564 12.0323 53.998 12.259 54.0812 12.468C54.1663 12.677 54.285 12.8604 54.4374 13.0181C54.5899 13.1739 54.769 13.2951 54.9749 13.3819C55.1807 13.4686 55.4064 13.512 55.6518 13.512C55.8834 13.512 56.1012 13.4726 56.305 13.3937C56.5069 13.3129 56.6831 13.2005 56.8336 13.0566C56.984 12.9126 57.1028 12.7381 57.1899 12.5331C57.2769 12.328 57.3205 12.1013 57.3205 11.8529C57.3205 11.6064 57.2779 11.3797 57.1928 11.1726C57.1077 10.9656 56.9889 10.7862 56.8365 10.6344C56.6841 10.4826 56.504 10.3633 56.2961 10.2765C56.0883 10.1898 55.8617 10.1464 55.6162 10.1464C55.3846 10.1464 55.1679 10.1849 54.966 10.2617C54.766 10.3386 54.5909 10.4481 54.4404 10.59C54.292 10.734 54.1742 10.9065 54.0871 11.1076C54 11.3107 53.9564 11.5374 53.9564 11.7878ZM61.6614 14.2336V9.12904H63.4162V13.9586C63.4162 14.205 63.4498 14.4278 63.5171 14.627C63.5844 14.8281 63.6784 15.0006 63.7992 15.1445C63.9199 15.2885 64.0644 15.3999 64.2327 15.4787C64.4029 15.5596 64.589 15.6 64.7909 15.6C64.9651 15.6 65.1363 15.5704 65.3045 15.5113C65.4708 15.4541 65.6311 15.3782 65.7855 15.2835C65.9399 15.1909 66.0874 15.0834 66.2279 14.9612C66.3685 14.8369 66.5011 14.7078 66.6258 14.5737V9.12904H68.3806V16.783H66.9584L66.6971 15.4906C66.5249 15.6503 66.3368 15.8149 66.1329 15.9844C65.931 16.156 65.7163 16.3117 65.4886 16.4517C65.261 16.5897 65.0205 16.7041 64.7671 16.7948C64.5138 16.8835 64.2495 16.9279 63.9744 16.9279C63.6596 16.9279 63.3617 16.8648 63.0806 16.7386C62.8015 16.6144 62.5561 16.4369 62.3443 16.2063C62.1345 15.9736 61.9682 15.6917 61.8455 15.3604C61.7228 15.0292 61.6614 14.6536 61.6614 14.2336ZM72.8818 7.47581V16.783H71.0825V6.2041H74.2862C74.8959 6.2041 75.4511 6.27804 75.9519 6.42591C76.4507 6.57181 76.8803 6.78574 77.2405 7.06768C77.6008 7.34963 77.8799 7.69467 78.0778 8.1028C78.2758 8.5129 78.3747 8.98314 78.3747 9.51351C78.3747 10.0813 78.2659 10.589 78.0481 11.0366C77.8324 11.4842 77.5454 11.8627 77.1871 12.1723C76.8288 12.4838 76.4201 12.7224 75.9608 12.888C75.5016 13.0536 75.0335 13.1364 74.5564 13.1364C74.4931 13.1364 74.4268 13.1344 74.3575 13.1305C74.2862 13.1246 74.2021 13.1147 74.1051 13.1009L74.215 11.9031C74.2882 11.911 74.3555 11.9169 74.4169 11.9209C74.4802 11.9229 74.5386 11.9238 74.592 11.9238C74.881 11.9238 75.1463 11.8755 75.3878 11.7789C75.6313 11.6823 75.8411 11.5404 76.0172 11.3531C76.1934 11.1657 76.331 10.936 76.43 10.664C76.5289 10.3919 76.5784 10.0774 76.5784 9.72053C76.5784 9.3262 76.52 8.98708 76.4032 8.70316C76.2884 8.41925 76.1212 8.1856 75.9014 8.00224C75.6817 7.81888 75.4155 7.68579 75.1027 7.60298C74.792 7.5182 74.4406 7.47581 74.0487 7.47581H72.8818ZM84.2982 15.6562C84.1715 15.7626 84.0201 15.8888 83.8439 16.0347C83.6678 16.1826 83.4718 16.3226 83.256 16.4547C83.0423 16.5868 82.8087 16.6982 82.5553 16.7889C82.3 16.8815 82.0327 16.9279 81.7536 16.9279C81.4686 16.9279 81.2034 16.8756 80.9579 16.7711C80.7144 16.6686 80.5026 16.5247 80.3225 16.3393C80.1404 16.154 79.9979 15.9322 79.895 15.6739C79.79 15.4176 79.7376 15.1327 79.7376 14.8192C79.7376 14.4919 79.8039 14.1715 79.9365 13.858C80.0691 13.5465 80.2918 13.2675 80.6046 13.0211C80.9154 12.7766 81.3271 12.5784 81.8397 12.4266C82.3524 12.2748 82.9858 12.1989 83.74 12.1989H84.2685V11.6074C84.2685 11.3945 84.2319 11.2042 84.1587 11.0366C84.0874 10.867 83.9864 10.7221 83.8558 10.6019C83.7252 10.4816 83.5688 10.3899 83.3867 10.3268C83.2065 10.2657 83.0046 10.2351 82.781 10.2351C82.6088 10.2351 82.4227 10.2548 82.2228 10.2943C82.0248 10.3357 81.8298 10.3929 81.6378 10.4658C81.4439 10.5368 81.2548 10.6216 81.0707 10.7202C80.8886 10.8187 80.7243 10.9262 80.5779 11.0425L80.4472 10.9715L80.1147 9.75898C80.6986 9.45534 81.242 9.25029 81.7447 9.14382C82.2475 9.03736 82.7186 8.98412 83.1581 8.98412C83.6133 8.98412 84.0181 9.03045 84.3724 9.12312C84.7287 9.21382 85.0296 9.3538 85.2751 9.54308C85.5225 9.73433 85.7105 9.97586 85.8392 10.2677C85.9659 10.5575 86.0292 10.9025 86.0292 11.3028V14.8399C86.0292 14.9129 86.0352 14.9927 86.047 15.0795C86.0589 15.1662 86.0837 15.248 86.1213 15.3249C86.1569 15.4018 86.2094 15.4669 86.2786 15.5201C86.3499 15.5734 86.4429 15.6 86.5577 15.6C86.627 15.6 86.7092 15.5901 86.8042 15.5704C86.9012 15.5507 86.9982 15.5191 87.0951 15.4758V16.3423C86.8339 16.5197 86.5746 16.6617 86.3172 16.7682C86.0579 16.8746 85.8055 16.9279 85.5601 16.9279C85.3661 16.9279 85.1988 16.8914 85.0583 16.8185C84.9178 16.7475 84.799 16.6528 84.702 16.5345C84.607 16.4162 84.5268 16.2812 84.4615 16.1294C84.3962 15.9775 84.3418 15.8198 84.2982 15.6562ZM84.2685 14.7246V13.0506H83.8113C83.3085 13.0506 82.9037 13.0851 82.5969 13.1542C82.2901 13.2251 82.0525 13.3217 81.8843 13.444C81.7141 13.5662 81.6012 13.7082 81.5458 13.8699C81.4904 14.0315 81.4627 14.206 81.4627 14.3933C81.4627 14.5905 81.4914 14.764 81.5488 14.9138C81.6082 15.0617 81.6873 15.1869 81.7863 15.2894C81.8853 15.39 82.0021 15.4669 82.1367 15.5201C82.2732 15.5734 82.4187 15.6 82.5731 15.6C82.6879 15.6 82.8087 15.5862 82.9354 15.5586C83.0601 15.5329 83.1917 15.4866 83.3303 15.4196C83.4668 15.3506 83.6123 15.2609 83.7667 15.1504C83.9231 15.04 84.0904 14.8981 84.2685 14.7246ZM90.2781 16.783L87.5286 9.12904H89.4734L90.9669 14.0325L91.2995 15.4698H91.445L91.7716 14.0325L93.2769 9.12904H94.9367L90.8125 20.6543H89.1884L90.8125 16.783H90.2781Z" fill="#D17528"/>
</g>
</g>
</g>
</g>
<g clip-path="url(#clip7_268_266)">
<g clip-path="url(#clip8_268_266)">
<path d="M0.0610352 13.5001C0.0610352 6.06392 6.11312 0.0356445 13.5787 0.0356445C21.0443 0.0356445 27.0963 6.06392 27.0962 13.5001C27.0962 20.9363 21.0441 26.9646 13.5787 26.9644C6.11312 26.9644 0.0610352 20.9361 0.0610352 13.5001ZM13.5787 25.6486C20.3146 25.6486 25.7751 20.2095 25.7751 13.5001C25.7751 6.79074 20.3146 1.35165 13.5787 1.35165C6.84281 1.35165 1.38224 6.79074 1.38224 13.5001C1.38224 20.2095 6.84281 25.6486 13.5787 25.6486Z" fill="#D17528"/>
<path d="M13.5787 26.8299C20.9696 26.8299 26.9611 20.862 26.9611 13.5002C26.9611 6.13834 20.9696 0.17041 13.5787 0.17041C6.1878 0.17041 0.196289 6.13834 0.196289 13.5002C0.196289 20.862 6.1878 26.8299 13.5787 26.8299Z" fill="#D17528"/>
<g clip-path="url(#clip9_268_266)">
<g clip-path="url(#clip10_268_266)">
<path d="M20.1994 8.31861H16.8891V6.90547C16.8891 6.65561 16.7894 6.41599 16.6121 6.23931C16.4347 6.06263 16.1941 5.96338 15.9433 5.96338H11.2142C10.9633 5.96338 10.7228 6.06263 10.5454 6.23931C10.368 6.41599 10.2684 6.65561 10.2684 6.90547V8.31861H6.95802C6.70718 8.31861 6.4666 8.41787 6.28923 8.59455C6.11186 8.77122 6.01221 9.01085 6.01221 9.26071V13.9712C6.01221 14.221 6.11186 14.4607 6.28923 14.6373C6.4666 14.814 6.70718 14.9133 6.95802 14.9133V20.5658C6.95802 20.6908 7.00785 20.8106 7.09653 20.8989C7.18522 20.9873 7.30551 21.0369 7.43093 21.0369H11.2142V20.0948H7.90384V14.9133H11.6871V15.3843C11.6871 15.5092 11.7369 15.6291 11.8256 15.7174C11.9143 15.8057 12.0346 15.8554 12.16 15.8554H14.9975C15.1229 15.8554 15.2432 15.8057 15.3319 15.7174C15.4205 15.6291 15.4704 15.5092 15.4704 15.3843V13.5001C15.4704 13.3752 15.4205 13.2554 15.3319 13.167C15.2432 13.0787 15.1229 13.0291 14.9975 13.0291H12.16C12.0346 13.0291 11.9143 13.0787 11.8256 13.167C11.7369 13.2554 11.6871 13.3752 11.6871 13.5001V13.9712H6.95802V9.26071H20.1994V13.0291H21.1453V9.26071C21.1453 9.01085 21.0456 8.77122 20.8682 8.59455C20.6909 8.41787 20.4503 8.31861 20.1994 8.31861ZM12.6329 13.9712H14.5245V14.9133H12.6329V13.9712ZM15.9433 8.31861H11.2142V6.90547H15.9433V8.31861Z" fill="white"/>
<path d="M20.6722 14.4424H16.889C16.7636 14.4424 16.6433 14.492 16.5546 14.5803C16.4659 14.6687 16.4161 14.7885 16.4161 14.9134V16.3266H13.1057C12.9803 16.3266 12.86 16.3762 12.7713 16.4645C12.6826 16.5529 12.6328 16.6727 12.6328 16.7976V20.566C12.6328 20.6909 12.6826 20.8107 12.7713 20.8991C12.86 20.9874 12.9803 21.037 13.1057 21.037H20.6722C20.7977 21.037 20.918 20.9874 21.0066 20.8991C21.0953 20.8107 21.1452 20.6909 21.1452 20.566V14.9134C21.1452 14.7885 21.0953 14.6687 21.0066 14.5803C20.918 14.492 20.7977 14.4424 20.6722 14.4424ZM16.4161 20.0949H13.5786V19.1529H16.4161V20.0949ZM16.4161 18.2108H13.5786V17.2687H16.4161V18.2108ZM20.1993 20.0949H17.3619V19.1529H20.1993V20.0949ZM20.1993 18.2108H17.3619V17.2687H20.1993V18.2108ZM20.1993 16.3266H17.3619V15.3845H20.1993V16.3266Z" fill="white"/>
</g>
</g>
</g>
</g>
</g>
</g>
</g>
<defs>
<clipPath id="clip0_268_266">
<rect width="95" height="27" fill="white"/>
</clipPath>
<clipPath id="clip1_268_266">
<rect width="94.8781" height="26.9288" fill="white" transform="translate(0.0610352 0.0356445)"/>
</clipPath>
<clipPath id="clip2_268_266">
<rect width="94.8781" height="26.9288" fill="white" transform="translate(0.0610352 0.0356445)"/>
</clipPath>
<clipPath id="clip3_268_266">
<rect width="60.926" height="14.5921" fill="white" transform="translate(34.0132 6.2041)"/>
</clipPath>
<clipPath id="clip4_268_266">
<rect width="60.926" height="14.5921" fill="white" transform="translate(34.0132 6.2041)"/>
</clipPath>
<clipPath id="clip5_268_266">
<rect width="60.926" height="14.5921" fill="white" transform="translate(34.0132 6.2041)"/>
</clipPath>
<clipPath id="clip6_268_266">
<rect width="60.926" height="14.5921" fill="white" transform="translate(34.0132 6.2041)"/>
</clipPath>
<clipPath id="clip7_268_266">
<rect width="27.0352" height="26.9288" fill="white" transform="translate(0.0610352 0.0356445)"/>
</clipPath>
<clipPath id="clip8_268_266">
<rect width="27.0352" height="26.9288" fill="white" transform="translate(0.0610352 0.0356445)"/>
</clipPath>
<clipPath id="clip9_268_266">
<rect width="15.1331" height="15.0735" fill="white" transform="translate(6.01221 5.96338)"/>
</clipPath>
<clipPath id="clip10_268_266">
<rect width="15.1331" height="15.0735" fill="white" transform="translate(6.01221 5.96338)"/>
</clipPath>
</defs>
</svg>
