<svg width="253" height="144" viewBox="0 0 253 144" fill="none" xmlns="http://www.w3.org/2000/svg">
<g clip-path="url(#clip0_269_396)">
<path d="M38.5941 123.042C32.976 127.378 31.3838 135.008 31.3838 135.008C31.3838 135.008 38.9003 135.607 44.5184 131.271C50.1365 126.934 51.7288 119.305 51.7288 119.305C51.7288 119.305 44.2122 118.706 38.5941 123.042Z" fill="#F1F1F1"/>
<path d="M40.9342 125.078C38.2341 131.773 31.4717 135.223 31.4717 135.223C31.4717 135.223 29.0871 127.818 31.7872 121.123C34.4873 114.428 41.2497 110.978 41.2497 110.978C41.2497 110.978 43.6343 118.383 40.9342 125.078Z" fill="#F1F1F1"/>
<path d="M202.572 105.724C201.975 101.56 201.818 97.3421 202.102 93.1435L202.572 86.1948C199.981 91.5339 200.566 98.5612 202.572 105.724Z" fill="#EAC6A6"/>
<path d="M204.593 106.886C204.306 104.402 204.23 101.896 204.367 99.3978L204.593 95.2617C203.346 98.4398 203.628 102.623 204.593 106.886Z" fill="#CACACA"/>
<path d="M213.576 112.001V114.326C213.575 114.511 213.503 114.688 213.377 114.818C213.251 114.949 213.08 115.023 212.902 115.023H211.779C211.75 115.023 211.72 115.029 211.693 115.041C211.666 115.053 211.641 115.07 211.62 115.091C211.599 115.113 211.583 115.139 211.572 115.167C211.56 115.195 211.555 115.225 211.555 115.256V134.32C211.554 134.504 211.482 134.681 211.356 134.812C211.23 134.942 211.059 135.016 210.881 135.017H197.184C197.006 135.017 196.834 134.943 196.708 134.813C196.582 134.682 196.511 134.505 196.511 134.32V115.256C196.51 115.194 196.487 115.135 196.445 115.092C196.402 115.048 196.345 115.024 196.286 115.023H194.939C194.76 115.023 194.589 114.95 194.463 114.819C194.336 114.688 194.265 114.511 194.265 114.326V112.001C194.265 111.91 194.282 111.819 194.316 111.734C194.35 111.649 194.4 111.573 194.462 111.508C194.525 111.443 194.599 111.392 194.681 111.357C194.763 111.322 194.85 111.304 194.939 111.304H212.902C213.08 111.304 213.251 111.378 213.378 111.509C213.504 111.639 213.575 111.816 213.576 112.001Z" fill="#F2F2F2"/>
<path d="M211.575 115.512H196.531V116.209H211.575V115.512Z" fill="#E6E6E6"/>
<path d="M211.555 125.774C206.521 127.931 201.432 127.955 196.286 125.774V120.861C201.24 119.138 206.601 119.138 211.555 120.861V125.774Z" fill="#E6E6E6"/>
<path d="M127.23 50.6464C138.468 50.6464 147.579 41.2139 147.579 29.5783C147.579 17.9428 138.468 8.51025 127.23 8.51025C115.992 8.51025 106.882 17.9428 106.882 29.5783C106.882 41.2139 115.992 50.6464 127.23 50.6464Z" fill="#EBB88E"/>
<path d="M146.236 11.4025C143.194 6.28765 138.432 2.51869 132.867 0.82116L130.368 2.7086V0.257814C129.032 0.0460143 127.679 -0.035577 126.328 0.0141131L124.173 2.03315V0.181856C120.982 0.592416 117.908 1.68308 115.144 3.38507C112.38 5.08706 109.987 7.36345 108.116 10.0707C103.435 17.0567 102.645 26.7758 107.249 33.8179C108.512 29.7969 110.046 26.024 111.31 22.0034C112.303 22.1436 113.31 22.1486 114.304 22.0184L115.842 18.3041L116.271 21.8612C121.037 21.4315 128.105 20.4876 132.623 19.6229L132.183 16.8939L134.811 19.1615C136.195 18.8317 137.017 18.5323 136.949 18.3037C140.309 23.912 144.421 27.4939 147.781 33.1022C149.057 25.1942 150.526 18.6188 146.236 11.4025Z" fill="#2F2E41"/>
<path d="M170.994 83.7556C170.294 79.3971 169.572 74.9549 167.616 71.0285C166.33 68.4567 164.289 66.0059 161.537 65.4974C160.995 65.4474 160.463 65.3197 159.955 65.118C159.148 64.7159 148.314 58.3123 146.592 57.197C145.114 56.2396 142.78 54.4667 141.603 54.4667C140.419 54.4398 135.879 55.5337 118.16 54.0996C118.16 54.0996 113.292 56.0862 109.526 58.495C109.469 58.4561 91.1348 68.6496 90.446 68.6228C89.1416 68.5659 87.9291 69.4307 87.1813 70.5196C86.4337 71.6085 86.083 72.9566 85.7158 74.26C89.7202 83.4932 93.3841 92.7384 97.3889 101.972C97.5764 102.319 97.6761 102.711 97.6785 103.109C97.5981 103.522 97.4277 103.911 97.1803 104.246C95.2164 107.513 95.2789 111.621 95.4934 115.46C95.7081 119.299 95.9736 123.354 94.3166 126.795C93.8658 127.74 93.2797 128.605 92.851 129.549C91.8472 131.689 91.4844 138.532 92.0707 140.831L165.532 143.01C163.953 138.515 170.994 83.7556 170.994 83.7556Z" fill="#D17528"/>
<path d="M79.3658 102.381C79.2193 103.479 79.2045 104.591 79.3219 105.693L80.3748 121.349C80.4736 122.824 80.5709 124.296 80.7047 125.768C80.9573 128.625 81.3347 131.459 81.8031 134.288C81.8137 134.69 81.9778 135.071 82.2594 135.348C82.541 135.624 82.9171 135.774 83.3051 135.764C87.94 136.779 92.7286 136.739 97.4587 136.462C104.677 136.045 123.143 135.256 124.271 133.738C125.399 132.221 124.742 129.767 123.271 128.54C121.8 127.313 97.4309 124.321 97.4309 124.321C97.669 122.368 98.3873 120.528 99.0686 118.673C100.293 115.383 101.436 111.985 101.458 108.46C101.48 104.936 100.197 101.231 97.4089 99.2117C95.1152 97.5542 92.1621 97.2467 89.3671 97.315C87.3335 97.3755 83.8198 96.871 81.9623 97.6943C80.4925 98.3645 79.6404 100.891 79.3658 102.381Z" fill="#EBB88E"/>
<path d="M85.504 74.5411C85.1471 74.928 84.8704 75.3863 84.6908 75.888C81.7292 82.7987 79.9799 90.2002 79.5248 97.746C79.5328 98.114 79.4509 98.4781 79.2867 98.8045C79.1248 99.0217 78.9445 99.2235 78.7481 99.4076C78.5768 99.6178 78.4472 99.8609 78.3667 100.123C78.2862 100.385 78.2563 100.661 78.2787 100.935C78.3012 101.209 78.3756 101.476 78.4976 101.72C78.6196 101.964 78.7869 102.181 78.99 102.359C79.0233 102.388 79.0574 102.416 79.0925 102.442C79.697 101.265 81.1441 100.88 82.4304 100.777C88.5893 100.273 94.6053 103.239 100.783 103.016C100.347 101.456 99.7199 99.958 99.3645 98.38C97.7926 91.3733 101.713 83.7447 99.3096 76.9959C98.8294 75.6454 98.0272 74.3177 96.7633 73.7259C96.2399 73.5073 95.6922 73.3573 95.1329 73.2791C93.572 72.9871 90.4648 71.739 88.9557 72.2398C88.3986 72.4258 88.1789 72.968 87.7172 73.2958C87.0158 73.7597 86.0853 73.9302 85.504 74.5411Z" fill="#D17528"/>
<path d="M171.038 97.6943C169.18 96.871 165.667 97.3755 163.633 97.315C160.838 97.2467 157.885 97.5542 155.591 99.2118C152.803 101.231 151.52 104.936 151.542 108.46C151.564 111.985 152.707 115.383 153.931 118.673C154.613 120.528 155.331 122.368 155.569 124.321C155.569 124.321 131.2 127.313 129.729 128.54C128.258 129.767 127.601 132.221 128.729 133.738C129.857 135.256 165.06 136.779 169.695 135.764C170.083 135.774 170.459 135.624 170.741 135.348C171.022 135.071 171.186 134.69 171.197 134.288C171.665 131.459 172.043 128.625 172.295 125.768C172.429 124.296 172.526 122.824 172.625 121.349L173.678 105.693C173.796 104.591 173.781 103.479 173.634 102.381C173.36 100.891 172.508 98.3645 171.038 97.6943Z" fill="#EBB88E"/>
<path d="M165.283 73.2958C164.821 72.968 164.601 72.4258 164.044 72.2398C162.535 71.739 159.428 72.9871 157.867 73.2791C157.308 73.3573 156.76 73.5073 156.237 73.7259C154.973 74.3177 154.17 75.6454 153.69 76.9959C151.287 83.7447 155.207 91.3733 153.635 98.38C153.28 99.958 152.653 101.456 152.217 103.016C158.395 103.239 164.411 100.273 170.569 100.777C171.856 100.88 173.303 101.265 173.907 102.442C173.942 102.416 173.977 102.388 174.01 102.359C174.213 102.181 174.38 101.964 174.502 101.72C174.624 101.476 174.699 101.209 174.721 100.935C174.744 100.661 174.714 100.385 174.633 100.123C174.553 99.8609 174.423 99.6178 174.252 99.4076C174.055 99.2235 173.875 99.0216 173.713 98.8045C173.549 98.4781 173.467 98.114 173.475 97.746C173.02 90.2002 171.271 82.7987 168.309 75.8879C168.13 75.3863 167.853 74.928 167.496 74.5411C166.915 73.9302 165.984 73.7596 165.283 73.2958Z" fill="#D17528"/>
<path d="M121.204 136.512C124.237 136.512 126.696 133.966 126.696 130.825C126.696 127.685 124.237 125.139 121.204 125.139C118.171 125.139 115.712 127.685 115.712 130.825C115.712 133.966 118.171 136.512 121.204 136.512Z" fill="#EBB88E"/>
<path d="M133.365 136.512C136.398 136.512 138.857 133.966 138.857 130.825C138.857 127.685 136.398 125.139 133.365 125.139C130.332 125.139 127.873 127.685 127.873 130.825C127.873 133.966 130.332 136.512 133.365 136.512Z" fill="#EBB88E"/>
<path d="M167.266 143.639H91.8144C90.9335 143.638 90.089 143.275 89.4661 142.63C88.8432 141.985 88.4927 141.111 88.4917 140.199V92.8048C88.4927 91.8928 88.8432 91.0184 89.4661 90.3735C90.089 89.7285 90.9335 89.3658 91.8144 89.3647H167.266C168.147 89.3658 168.991 89.7285 169.614 90.3735C170.237 91.0184 170.587 91.8928 170.588 92.8048V140.199C170.587 141.111 170.237 141.985 169.614 142.63C168.991 143.275 168.147 143.638 167.266 143.639Z" fill="#3F3D56"/>
<path d="M129.357 118.778C130.571 118.778 131.555 117.759 131.555 116.502C131.555 115.245 130.571 114.226 129.357 114.226C128.143 114.226 127.159 115.245 127.159 116.502C127.159 117.759 128.143 118.778 129.357 118.778Z" fill="white"/>
<path d="M253 134.079H0V142.129H14.9647V144H238.041V142.129H253V134.079Z" fill="#EAC6A6"/>
<path d="M108.519 37.4309C105.25 37.4309 102.599 34.4637 102.599 30.8034V27.4897C102.599 23.8295 105.25 20.8623 108.519 20.8623L108.519 37.4309Z" fill="#D17528"/>
<path d="M146.305 20.8623C149.574 20.8623 152.225 23.8295 152.225 27.4897V30.8034C152.225 34.4637 149.574 37.4308 146.305 37.4308V20.8623Z" fill="#D17528"/>
<path d="M149.407 28.0105H148.468C148.468 14.6748 138.776 3.82544 126.864 3.82544C114.952 3.82544 105.261 14.6748 105.261 28.0105H104.321C104.321 14.095 114.434 2.77393 126.864 2.77393C139.294 2.77393 149.407 14.095 149.407 28.0105Z" fill="#D17528"/>
</g>
<defs>
<clipPath id="clip0_269_396">
<rect width="253" height="144" fill="white"/>
</clipPath>
</defs>
</svg>
