<svg width="15" height="15" viewBox="0 0 15 15" fill="none" xmlns="http://www.w3.org/2000/svg">
<g clip-path="url(#clip0_262_161)">
<path d="M10.3125 0.9375C10.5611 0.9375 10.7996 1.03627 10.9754 1.21209C11.1512 1.3879 11.25 1.62636 11.25 1.875V13.125C11.25 13.3736 11.1512 13.6121 10.9754 13.7879C10.7996 13.9637 10.5611 14.0625 10.3125 14.0625H4.6875C4.43886 14.0625 4.2004 13.9637 4.02459 13.7879C3.84877 13.6121 3.75 13.3736 3.75 13.125V1.875C3.75 1.62636 3.84877 1.3879 4.02459 1.21209C4.2004 1.03627 4.43886 0.9375 4.6875 0.9375H10.3125ZM4.6875 0C4.19022 0 3.71331 0.197544 3.36167 0.549175C3.01004 0.900806 2.8125 1.37772 2.8125 1.875V13.125C2.8125 13.6223 3.01004 14.0992 3.36167 14.4508C3.71331 14.8025 4.19022 15 4.6875 15H10.3125C10.8098 15 11.2867 14.8025 11.6383 14.4508C11.99 14.0992 12.1875 13.6223 12.1875 13.125V1.875C12.1875 1.37772 11.99 0.900806 11.6383 0.549175C11.2867 0.197544 10.8098 0 10.3125 0L4.6875 0Z" fill="white"/>
<path d="M7.5 13.125C7.74864 13.125 7.9871 13.0262 8.16291 12.8504C8.33873 12.6746 8.4375 12.4361 8.4375 12.1875C8.4375 11.9389 8.33873 11.7004 8.16291 11.5246C7.9871 11.3488 7.74864 11.25 7.5 11.25C7.25136 11.25 7.0129 11.3488 6.83709 11.5246C6.66127 11.7004 6.5625 11.9389 6.5625 12.1875C6.5625 12.4361 6.66127 12.6746 6.83709 12.8504C7.0129 13.0262 7.25136 13.125 7.5 13.125Z" fill="white"/>
</g>
<defs>
<clipPath id="clip0_262_161">
<rect width="15" height="15" fill="white"/>
</clipPath>
</defs>
</svg>
