<svg width="15" height="15" viewBox="0 0 15 15" fill="none" xmlns="http://www.w3.org/2000/svg">
<path d="M3.125 13.125C2.94792 13.125 2.79938 13.065 2.67938 12.945C2.55938 12.825 2.49958 12.6767 2.5 12.5V11.875H1.875V9.375C1.875 9.19792 1.935 9.04938 2.055 8.92938C2.175 8.80938 2.32333 8.74959 2.5 8.75H3.125V4.375C3.125 3.6875 3.36979 3.09896 3.85938 2.60938C4.34896 2.11979 4.9375 1.875 5.625 1.875C6.3125 1.875 6.90104 2.11979 7.39062 2.60938C7.88021 3.09896 8.125 3.6875 8.125 4.375V10.625C8.125 10.9688 8.2475 11.2631 8.4925 11.5081C8.7375 11.7531 9.03167 11.8754 9.375 11.875C9.71875 11.875 10.0131 11.7525 10.2581 11.5075C10.5031 11.2625 10.6254 10.9683 10.625 10.625V6.25H10C9.82292 6.25 9.67437 6.19 9.55437 6.07C9.43437 5.95 9.37458 5.80167 9.375 5.625V3.125H10V2.5C10 2.32292 10.06 2.17438 10.18 2.05438C10.3 1.93438 10.4483 1.87459 10.625 1.875H11.875C12.0521 1.875 12.2006 1.935 12.3206 2.055C12.4406 2.175 12.5004 2.32334 12.5 2.5V3.125H13.125V5.625C13.125 5.80209 13.065 5.95063 12.945 6.07063C12.825 6.19063 12.6767 6.25042 12.5 6.25H11.875V10.625C11.875 11.3125 11.6302 11.901 11.1406 12.3906C10.651 12.8802 10.0625 13.125 9.375 13.125C8.6875 13.125 8.09896 12.8802 7.60938 12.3906C7.11979 11.901 6.875 11.3125 6.875 10.625V4.375C6.875 4.03125 6.7525 3.73688 6.5075 3.49188C6.2625 3.24688 5.96833 3.12459 5.625 3.125C5.28125 3.125 4.98687 3.2475 4.74187 3.4925C4.49688 3.7375 4.37458 4.03167 4.375 4.375V8.75H5C5.17708 8.75 5.32563 8.81 5.44563 8.93C5.56563 9.05 5.62542 9.19834 5.625 9.375V11.875H5V12.5C5 12.6771 4.94 12.8256 4.82 12.9456C4.7 13.0656 4.55167 13.1254 4.375 13.125H3.125Z" fill="white"/>
</svg>
