<svg width="15" height="15" viewBox="0 0 15 15" fill="none" xmlns="http://www.w3.org/2000/svg">
<path fill-rule="evenodd" clip-rule="evenodd" d="M11.2502 6.375H8.39047L10.0952 2.39775C10.1197 2.34069 10.1296 2.27844 10.1241 2.2166C10.1185 2.15476 10.0977 2.09526 10.0635 2.04344C10.0293 1.99162 9.98281 1.9491 9.92812 1.91971C9.87344 1.89031 9.81231 1.87494 9.75022 1.875H6.00022C5.92678 1.87493 5.85494 1.89644 5.79361 1.93683C5.73228 1.97723 5.68416 2.03475 5.65522 2.10225L3.40522 7.35225C3.38076 7.40932 3.37085 7.47156 3.37638 7.5334C3.38191 7.59524 3.40271 7.65474 3.43691 7.70656C3.47111 7.75838 3.51764 7.8009 3.57232 7.8303C3.62701 7.85969 3.68814 7.87506 3.75022 7.875H5.60572L3.40222 13.3605C3.25222 13.7332 3.71497 14.049 4.00747 13.773L7.77547 10.2157L11.494 7.035C11.5522 6.98518 11.5938 6.91869 11.6131 6.84451C11.6325 6.77032 11.6286 6.692 11.602 6.62008C11.5755 6.54817 11.5275 6.48612 11.4646 6.4423C11.4017 6.39848 11.3269 6.37499 11.2502 6.375ZM7.82197 7.125H10.2347L7.27372 9.6585L4.73497 12.0548L6.50872 7.6395C6.53153 7.5826 6.54003 7.52098 6.5335 7.46004C6.52697 7.39909 6.5056 7.34067 6.47126 7.2899C6.43691 7.23913 6.39065 7.19755 6.33651 7.1688C6.28238 7.14005 6.22202 7.12501 6.16072 7.125H4.31872L6.24772 2.625H9.18172L7.47697 6.60225C7.45251 6.65932 7.4426 6.72156 7.44813 6.7834C7.45366 6.84524 7.47446 6.90474 7.50866 6.95656C7.54286 7.00838 7.58939 7.0509 7.64407 7.0803C7.69876 7.10969 7.75989 7.12506 7.82197 7.125Z" fill="white"/>
</svg>
