<svg width="15" height="15" viewBox="0 0 15 15" fill="none" xmlns="http://www.w3.org/2000/svg">
<path fill-rule="evenodd" clip-rule="evenodd" d="M1.125 7.5C1.125 8.33718 1.28989 9.16616 1.61027 9.93961C1.93064 10.7131 2.40022 11.4158 2.99219 12.0078C3.58417 12.5998 4.28694 13.0694 5.06039 13.3897C5.83384 13.7101 6.66282 13.875 7.5 13.875C8.33718 13.875 9.16616 13.7101 9.93961 13.3897C10.7131 13.0694 11.4158 12.5998 12.0078 12.0078C12.5998 11.4158 13.0694 10.7131 13.3897 9.93961C13.7101 9.16616 13.875 8.33718 13.875 7.5C13.875 5.80925 13.2034 4.18774 12.0078 2.99219C10.8123 1.79665 9.19075 1.125 7.5 1.125C5.80925 1.125 4.18774 1.79665 2.99219 2.99219C1.79665 4.18774 1.125 5.80925 1.125 7.5ZM13.125 7.5C13.125 8.99184 12.5324 10.4226 11.4775 11.4775C10.4226 12.5324 8.99184 13.125 7.5 13.125C6.00816 13.125 4.57742 12.5324 3.52252 11.4775C2.46763 10.4226 1.875 8.99184 1.875 7.5C1.875 6.00816 2.46763 4.57742 3.52252 3.52252C4.57742 2.46763 6.00816 1.875 7.5 1.875C8.99184 1.875 10.4226 2.46763 11.4775 3.52252C12.5324 4.57742 13.125 6.00816 13.125 7.5Z" fill="white"/>
<path fill-rule="evenodd" clip-rule="evenodd" d="M4.875 7.5C4.875 10.797 5.9565 13.5 7.5 13.5C9.0435 13.5 10.125 10.797 10.125 7.5C10.125 4.203 9.0435 1.5 7.5 1.5C5.9565 1.5 4.875 4.203 4.875 7.5ZM9.375 7.5C9.375 10.4167 8.44125 12.75 7.5 12.75C6.55875 12.75 5.625 10.4167 5.625 7.5C5.625 4.58325 6.55875 2.25 7.5 2.25C8.44125 2.25 9.375 4.58325 9.375 7.5Z" fill="white"/>
<path d="M2.80125 3.98423L3.30375 3.42773C3.384 3.49973 3.4695 3.57023 3.561 3.63848C4.5495 4.37948 6.1095 4.83098 7.80975 4.83098C9.2595 4.83098 10.6125 4.50323 11.601 3.93848C11.8288 3.80962 12.0439 3.65972 12.2438 3.49073L12.7313 4.06073C12.5078 4.25198 12.2543 4.42823 11.9738 4.58873C10.866 5.22248 9.38475 5.58098 7.80975 5.58098C5.95725 5.58098 4.23825 5.08373 3.111 4.23848C3.00389 4.15829 2.90053 4.07394 2.80125 3.98423ZM2.80125 11.0252L3.30375 11.5802C3.384 11.5082 3.4695 11.4377 3.561 11.3702C4.5495 10.6292 6.1095 10.1777 7.80975 10.1777C9.2595 10.1777 10.6125 10.5047 11.601 11.0702C11.8418 11.2082 12.057 11.3582 12.2438 11.5172L12.7313 10.9472C12.4958 10.748 12.2422 10.5712 11.9738 10.4192C10.866 9.78623 9.38475 9.42773 7.80975 9.42773C5.95725 9.42773 4.23825 9.92498 3.111 10.7695C3.0015 10.852 2.898 10.9375 2.80125 11.0252ZM1.5 7.87523V7.12523H13.5V7.87523H1.5Z" fill="white"/>
</svg>
