<svg width="15" height="15" viewBox="0 0 15 15" fill="none" xmlns="http://www.w3.org/2000/svg">
<path d="M5.625 12.5V11.25H2.88437C2.59687 11.25 2.35688 11.1538 2.16438 10.9613C1.97146 10.7683 1.875 10.5281 1.875 10.2406V3.50937C1.875 3.22187 1.97146 2.98187 2.16438 2.78937C2.35688 2.59646 2.59687 2.5 2.88437 2.5H12.1156C12.4031 2.5 12.6431 2.59646 12.8356 2.78937C13.0285 2.98187 13.125 3.22187 13.125 3.50937V10.2406C13.125 10.5281 13.0288 10.7681 12.8363 10.9606C12.6433 11.1535 12.4031 11.25 12.1156 11.25H9.375V12.5H5.625ZM2.88437 10.625H12.1156C12.2115 10.625 12.2996 10.585 12.38 10.505C12.46 10.4246 12.5 10.3365 12.5 10.2406V3.50937C12.5 3.41354 12.46 3.32542 12.38 3.245C12.2996 3.165 12.2115 3.125 12.1156 3.125H2.88437C2.78854 3.125 2.70042 3.165 2.62 3.245C2.54 3.32542 2.5 3.41354 2.5 3.50937V10.2406C2.5 10.3365 2.54 10.4246 2.62 10.505C2.70042 10.585 2.78854 10.625 2.88437 10.625Z" fill="white"/>
</svg>
