<svg width="13" height="13" viewBox="0 0 13 13" fill="none" xmlns="http://www.w3.org/2000/svg">
<path d="M10.7792 6.85742C10.6923 6.75857 10.6444 6.6315 10.6444 6.49992C10.6444 6.36835 10.6923 6.24127 10.7792 6.14242L11.4725 5.36242C11.5489 5.2772 11.5963 5.16997 11.608 5.05611C11.6197 4.94226 11.595 4.82763 11.5375 4.72867L10.4542 2.85451C10.3972 2.75566 10.3105 2.67731 10.2065 2.63063C10.1024 2.58394 9.98625 2.5713 9.87457 2.59451L8.85624 2.80034C8.72666 2.82711 8.59176 2.80553 8.47701 2.73967C8.36225 2.67381 8.27557 2.56823 8.23332 2.44284L7.9029 1.45159C7.86656 1.344 7.79733 1.25056 7.70499 1.18446C7.61265 1.11837 7.50187 1.08296 7.38832 1.08326H5.22165C5.10353 1.07709 4.98664 1.10976 4.88883 1.17627C4.79102 1.24278 4.71767 1.33947 4.67998 1.45159L4.37665 2.44284C4.3344 2.56823 4.24772 2.67381 4.13296 2.73967C4.01821 2.80553 3.88331 2.82711 3.75373 2.80034L2.70832 2.59451C2.60245 2.57955 2.49452 2.59625 2.39813 2.64252C2.30174 2.68879 2.2212 2.76255 2.16665 2.85451L1.08332 4.72867C1.02436 4.82652 0.997855 4.94051 1.00758 5.05434C1.01731 5.16816 1.06278 5.27599 1.13748 5.36242L1.8254 6.14242C1.91224 6.24127 1.96013 6.36835 1.96013 6.49992C1.96013 6.6315 1.91224 6.75857 1.8254 6.85742L1.13748 7.63742C1.06278 7.72385 1.01731 7.83169 1.00758 7.94551C0.997855 8.05933 1.02436 8.17332 1.08332 8.27117L2.16665 10.1453C2.22358 10.2442 2.31026 10.3225 2.41433 10.3692C2.5184 10.4159 2.63456 10.4285 2.74623 10.4053L3.76457 10.1995C3.89414 10.1727 4.02904 10.1943 4.1438 10.2602C4.25855 10.326 4.34524 10.4316 4.38748 10.557L4.7179 11.5483C4.75559 11.6604 4.82894 11.7571 4.92675 11.8236C5.02456 11.8901 5.14145 11.9228 5.25957 11.9166H7.42623C7.53979 11.9169 7.65057 11.8815 7.74291 11.8154C7.83525 11.7493 7.90448 11.6558 7.94082 11.5483L8.27123 10.557C8.31348 10.4316 8.40017 10.326 8.51492 10.2602C8.62968 10.1943 8.76458 10.1727 8.89415 10.1995L9.91249 10.4053C10.0242 10.4285 10.1403 10.4159 10.2444 10.3692C10.3485 10.3225 10.4351 10.2442 10.4921 10.1453L11.5754 8.27117C11.6329 8.17222 11.6576 8.05759 11.6459 7.94373C11.6342 7.82988 11.5868 7.72264 11.5104 7.63742L10.7792 6.85742ZM9.97207 7.58326L10.4054 8.07076L9.71207 9.27326L9.0729 9.14326C8.68278 9.06351 8.27696 9.12978 7.93247 9.32948C7.58799 9.52918 7.32881 9.84842 7.20415 10.2266L6.99832 10.8333H5.61165L5.41665 10.2158C5.29199 9.83759 5.03282 9.51835 4.68833 9.31865C4.34384 9.11895 3.93802 9.05268 3.5479 9.13242L2.90873 9.26242L2.20457 8.06534L2.6379 7.57784C2.90438 7.27991 3.0517 6.89422 3.0517 6.49451C3.0517 6.09479 2.90438 5.7091 2.6379 5.41117L2.20457 4.92367L2.8979 3.73201L3.53707 3.86201C3.92719 3.94175 4.33301 3.87548 4.6775 3.67578C5.02198 3.47608 5.28116 3.15684 5.40582 2.77867L5.61165 2.16659H6.99832L7.20415 2.78409C7.32881 3.16226 7.58799 3.48149 7.93247 3.6812C8.27696 3.8809 8.68278 3.94717 9.0729 3.86742L9.71207 3.73742L10.4054 4.93992L9.97207 5.42742C9.70858 5.72467 9.56309 6.10813 9.56309 6.50534C9.56309 6.90255 9.70858 7.28601 9.97207 7.58326ZM6.30498 4.33326C5.87646 4.33326 5.45756 4.46033 5.10125 4.69841C4.74494 4.93648 4.46724 5.27487 4.30325 5.67078C4.13926 6.06668 4.09635 6.50233 4.17995 6.92262C4.26355 7.34291 4.46991 7.72897 4.77292 8.03199C5.07593 8.335 5.462 8.54136 5.88229 8.62496C6.30258 8.70856 6.73823 8.66565 7.13413 8.50166C7.53004 8.33767 7.86843 8.05996 8.1065 7.70366C8.34458 7.34735 8.47165 6.92845 8.47165 6.49992C8.47165 5.92529 8.24338 5.37419 7.83705 4.96786C7.43072 4.56153 6.87962 4.33326 6.30498 4.33326ZM6.30498 7.58326C6.09072 7.58326 5.88127 7.51972 5.70312 7.40068C5.52496 7.28164 5.38611 7.11245 5.30412 6.9145C5.22212 6.71654 5.20067 6.49872 5.24247 6.28858C5.28427 6.07843 5.38744 5.8854 5.53895 5.73389C5.69046 5.58238 5.88349 5.47921 6.09364 5.43741C6.30378 5.39561 6.52161 5.41706 6.71956 5.49905C6.91751 5.58105 7.08671 5.7199 7.20574 5.89806C7.32478 6.07621 7.38832 6.28566 7.38832 6.49992C7.38832 6.78724 7.27418 7.06279 7.07102 7.26595C6.86785 7.46912 6.5923 7.58326 6.30498 7.58326Z" fill="white"/>
</svg>
